# xmcd CD database file
#
# Track frame offsets:
#	150
#	13563
#	33113
#	56150
#	71788
#	89838
#	105188
#	126313
#	141226
#	163694
#	180255
#	197925
#	218331
#	238375
#	254518
#	272055
#	289510
#	303097
#
# Disc length: 4302 seconds
#
# Revision: 0
# Processed by: cddbd v1.5.1PL0 Copyright (c) Steve Scherf et al.
# Submitted via: CDex 1.51
#
DISCID=0510cc12
DTITLE=Secret Garden - The Greatest Hits-Vol.2
DYEAR=2001
DGENRE=New Age
TTITLE0=Swan(Feat Youngok Shin)
TTITLE1=My Irish Friend(Feat Ding Fei Fei)
TTITLE2=You Raise Me Up
TTITLE3=Chaconne
TTITLE4=Duo
TTITLE5=The Promise
TTITLE6=Ink Painting(Feat Ding Fie Fei)
TTITLE7=Serenade To Spring
TTITLE8=Poeme
TTITLE9=Windancer
TTITLE10=Ode To Simplicity
TTITLE11=Moongate
TTITLE12=Evensong
TTITLE13=Escape
TTITLE14=Children Of The River
TTITLE15=Paslorale
TTITLE16=Ailanlia
TTITLE17=Aria
EXTD=YEAR: 2001
EXTT0=
EXTT1=
EXTT2=
EXTT3=
EXTT4=
EXTT5=
EXTT6=
EXTT7=
EXTT8=
EXTT9=
EXTT10=
EXTT11=
EXTT12=
EXTT13=
EXTT14=
EXTT15=
EXTT16=
EXTT17=
PLAYORDER=
